<?xml version="1.0" encoding="UTF-8" standalone="no"?>
<svg
   width="16"
   height="16"
   viewBox="0 0 16 16"
   xmlns="http://www.w3.org/2000/svg"
   xmlns:svg="http://www.w3.org/2000/svg">
  <path
     d="M13.222,0H2.778A2.778,2.778,0,0,0,0,2.778H0v9.444A2.778,2.778,0,0,0,2.778,15H13.222A2.778,2.778,0,0,0,16,12.222h0V2.778A2.778,2.778,0,0,0,13.222,0Z"
     style="fill: #ccc"
     id="path53" />
  <path
     d="m 11.457608,9.460298 c -0.270734,0 -0.379011,-0.162442 -0.379011,-0.162442 -0.0181,-0.07219 -0.03611,-1.146077 -0.04514,-2.210934 -0.0091,-1.109981 0,-2.210938 0.05418,-2.219962 C 11.403464,4.280385 12.396131,3.098211 12.396131,3.098211 10.537145,3.468204 9.5264209,4.686475 9.5264209,4.686475 9.2286299,4.451845 8.6149816,4.487942 8.6149816,4.487942 8.9037569,4.641355 9.1835131,5.10159 9.1835131,5.480608 v 3.736033 c 0,0 -0.6226747,0.550482 -1.1009667,0.550482 -0.2887733,0 -0.4602316,-0.153418 -0.5594985,-0.279757 C 7.4598939,9.397136 7.4328179,9.32493 7.4328179,9.32493 V 4.713547 c -0.063167,0.04512 -0.1443884,0.08122 -0.225606,0.08122 -0.099267,0 -0.2075572,-0.05415 -0.2797515,-0.198533 C 6.8733134,4.47892 6.8372164,4.316483 6.8372164,4.063805 6.8372164,3.215528 7.8028118,2.647 7.8028118,2.647 6.5845385,2.971873 5.447485,3.603569 3.9404376,5.336222 2.4333909,7.068875 2.7221665,8.494701 2.7221665,8.494701 c 0,0 0.40609,-0.992663 1.4077801,-2.030449 0.478284,-0.487309 0.8302295,-0.649745 1.0738835,-0.658769 0.2707278,0 0.3970673,0.198532 0.3970673,0.379017 v 3.510424 c 0,0.342924 -0.2256066,0.424141 -0.4331638,0.415124 -0.1714604,0 -0.3338963,-0.06317 -0.3338963,-0.06317 1.0287628,1.489009 3.4833571,1.705582 3.4833571,1.705582 l 1.0829103,-1.155102 0.02704,0.0181 0.9926653,0.83926 C 12.224651,10.380834 13.1,8.386479 13.1,8.386479 12.278793,9.261828 11.764416,9.460365 11.457593,9.460365"
     id="SVGID_1_"
     style="fill:#333333;stroke-width:0.0902416" />
</svg>
